<?xml version="1.0" encoding="UTF-8"?>
<svg version="1.1" xmlns="http://www.w3.org/2000/svg" width="326" height="97">
<path d="M0 0 C1.80404297 -0.02513672 1.80404297 -0.02513672 3.64453125 -0.05078125 C7.45822383 0.34025889 9.89468592 1.40135676 13.1875 3.3125 C13.1875 6.6125 13.1875 9.9125 13.1875 13.3125 C12.48625 13.02375 11.785 12.735 11.0625 12.4375 C10.11375 12.06625 9.165 11.695 8.1875 11.3125 C6.764375 10.7246875 6.764375 10.7246875 5.3125 10.125 C1.60983316 9.16230662 -1.09121503 9.56824301 -4.8125 10.3125 C-5.1425 11.6325 -5.4725 12.9525 -5.8125 14.3125 C-4.74322266 14.56773438 -4.74322266 14.56773438 -3.65234375 14.828125 C10.2015313 18.33354695 10.2015313 18.33354695 14.1875 24.3125 C14.84786734 28.35116761 15.08319891 32.49519353 13.2421875 36.23046875 C10.65464063 39.52592939 8.09131837 41.04375903 4.1875 42.3125 C-2.81372509 43.11832112 -8.43177729 42.20188387 -14.8125 39.3125 C-14.8125 35.6825 -14.8125 32.0525 -14.8125 28.3125 C-12.8325 29.3025 -12.8325 29.3025 -10.8125 30.3125 C-6.31872264 32.11001094 -2.64902303 32.59153018 2.1875 32.3125 C2.8475 31.9825 3.5075 31.6525 4.1875 31.3125 C4.13121008 29.34481003 4.13121008 29.34481003 3.1875 27.3125 C0.61411806 26.12227514 0.61411806 26.12227514 -2.5 25.375 C-11.57313298 22.54167361 -11.57313298 22.54167361 -14.8125 18.3125 C-15.5897614 14.4952829 -15.59305371 11.12917805 -14.8125 7.3125 C-10.60642594 1.74229381 -6.85561704 0.02190293 0 0 Z " fill="#E5E5E5" transform="translate(187.8125,23.6875)"/>
<path d="M0 0 C1.02867188 -0.01417969 2.05734375 -0.02835938 3.1171875 -0.04296875 C6.17963488 0.19168631 8.35748861 0.89565428 11.125 2.1875 C11.125 5.4875 11.125 8.7875 11.125 12.1875 C10.50625 11.8575 9.8875 11.5275 9.25 11.1875 C4.8400077 9.77630246 0.71377353 9.55456572 -3.875 10.1875 C-6.80923195 11.98396854 -8.34705355 13.1316071 -9.875 16.1875 C-10.49843986 21.21955028 -10.69762012 24.96603376 -7.8125 29.25 C-3.63629805 32.00451618 -0.37906885 32.59486048 4.57421875 31.7890625 C6.77116132 31.31311576 8.95024294 30.75628262 11.125 30.1875 C11.125 33.1575 11.125 36.1275 11.125 39.1875 C5.61658801 42.760524 0.47879578 42.97381612 -5.875 42.1875 C-11.87013802 40.55246236 -15.19274121 37.14476567 -18.74609375 32.1875 C-21.5179236 27.27685335 -21.55829615 21.67743113 -20.875 16.1875 C-18.58089252 9.07885305 -15.31238317 4.88303478 -8.875 1.1875 C-5.69954097 0.12901366 -3.33491204 0.02079122 0 0 Z " fill="#E3E3E3" transform="translate(43.875,23.8125)"/>
<path d="M0 0 C2.97 0 5.94 0 9 0 C9 4.62 9 9.24 9 14 C10.65 13.01 12.3 12.02 14 11 C17.98248997 10.4068632 19.67640929 10.82575885 23.25 12.75 C25.9344569 14.94637383 26.79684347 15.87221248 28 19 C28.22705078 21.47363281 28.22705078 21.47363281 28.1953125 24.203125 C28.18886719 25.1828125 28.18242187 26.1625 28.17578125 27.171875 C28.15902344 28.18765625 28.14226562 29.2034375 28.125 30.25 C28.11597656 31.28125 28.10695312 32.3125 28.09765625 33.375 C28.07412011 35.91690287 28.04124023 38.4583328 28 41 C25.03 41 22.06 41 19 41 C18.505 31.1 18.505 31.1 18 21 C16.02 21 14.04 21 12 21 C9.64641749 23.35358251 9.72128096 23.92968394 9.5859375 27.1328125 C9.52792969 28.34130859 9.52792969 28.34130859 9.46875 29.57421875 C9.42234375 30.83685547 9.42234375 30.83685547 9.375 32.125 C9.31699219 33.39923828 9.31699219 33.39923828 9.2578125 34.69921875 C9.16343506 36.79911684 9.08062414 38.89952891 9 41 C6.03 41 3.06 41 0 41 C0 27.47 0 13.94 0 0 Z " fill="#EAEAEA" transform="translate(207,24)"/>
<path d="M0 0 C2.97 0 5.94 0 9 0 C9 4.62 9 9.24 9 14 C10.98 13.01 12.96 12.02 15 11 C20.26345866 11.09234138 23.31920549 12.21094682 27 16 C28.03553257 19.0158323 28.11699303 21.81314228 28.09765625 24.984375 C28.09443359 25.91894531 28.09121094 26.85351562 28.08789062 27.81640625 C28.07951172 28.78449219 28.07113281 29.75257812 28.0625 30.75 C28.05798828 31.73355469 28.05347656 32.71710937 28.04882812 33.73046875 C28.037065 36.15367194 28.01913018 38.57684377 28 41 C25.03 41 22.06 41 19 41 C18.505 31.1 18.505 31.1 18 21 C16.02 21 14.04 21 12 21 C10.0243438 23.96348429 9.73623141 24.68020373 9.5859375 28.01171875 C9.52792969 29.14770508 9.52792969 29.14770508 9.46875 30.30664062 C9.42234375 31.48516602 9.42234375 31.48516602 9.375 32.6875 C9.31699219 33.88342773 9.31699219 33.88342773 9.2578125 35.10351562 C9.16367506 37.06863475 9.08075368 39.0342854 9 41 C6.03 41 3.06 41 0 41 C0 27.47 0 13.94 0 0 Z " fill="#E9E9E9" transform="translate(60,24)"/>
<path d="M0 0 C3.61504034 1.43237447 6.56367456 2.92253628 9 6 C9.98043964 8.94131891 10.11621202 10.82501665 10.09765625 13.88671875 C10.09443359 14.82451172 10.09121094 15.76230469 10.08789062 16.72851562 C10.07951172 17.70498047 10.07113281 18.68144531 10.0625 19.6875 C10.05798828 20.67556641 10.05347656 21.66363281 10.04882812 22.68164062 C10.03704303 25.12115474 10.02059011 27.56054689 10 30 C6.33333333 30 2.66666667 30 -1 30 C-1.66 30.33 -2.32 30.66 -3 31 C-9.85082873 31.44198895 -9.85082873 31.44198895 -13.4375 30.0625 C-15.99648446 26.68464051 -16.25654424 23.16334648 -16 19 C-14.8125 16.125 -14.8125 16.125 -12 14 C-8.05138296 12.70476971 -4.07756153 11.78858501 0 11 C-0.33 10.34 -0.66 9.68 -1 9 C-6.26053037 8.68436818 -9.44573816 9.33409063 -14 12 C-15 11 -15 11 -15.375 7.625 C-15.25125 6.42875 -15.1275 5.2325 -15 4 C-12.625 2.125 -12.625 2.125 -10 1 C-6.80273453 -0.59863274 -3.47829221 -0.3692042 0 0 Z M-7 20 C-6.67 21.32 -6.34 22.64 -6 24 C-3.54775306 23.89386164 -3.54775306 23.89386164 -1 23 C0.37466625 20.52363988 0.37466625 20.52363988 1 18 C-2.76687864 18 -3.91190305 18.23537317 -7 20 Z " fill="#E0E0E0" transform="translate(256,35)"/>
<path d="M0 0 C0.76183594 0.07863281 1.52367187 0.15726563 2.30859375 0.23828125 C4.5625 0.6875 4.5625 0.6875 8.5625 2.6875 C8.5625 5.6575 8.5625 8.6275 8.5625 11.6875 C7.716875 11.1925 6.87125 10.6975 6 10.1875 C2.22453168 8.54002292 -0.36567548 8.44319053 -4.4375 8.6875 C-1.61984575 11.50515425 1.4519026 11.84250793 5.25 12.80859375 C7.5625 13.6875 7.5625 13.6875 9.5625 16.6875 C9.90311873 19.7044088 10.13462107 21.78157815 9.5625 24.6875 C7.38675584 27.37855198 5.65184144 29.14282928 2.5625 30.6875 C-3.50103588 31.25459328 -8.15857992 31.02155479 -13.4375 27.6875 C-13.4375 24.7175 -13.4375 21.7475 -13.4375 18.6875 C-12.426875 19.161875 -11.41625 19.63625 -10.375 20.125 C-6.77827795 21.6811328 -3.34481291 22.2887946 0.5625 22.6875 C0.5625 21.6975 0.5625 20.7075 0.5625 19.6875 C-0.11296875 19.58953125 -0.7884375 19.4915625 -1.484375 19.390625 C-5.41020204 18.73253839 -8.65275732 18.17329309 -12.0625 16.0625 C-13.68191395 13.26533045 -14.11561805 10.88885092 -13.96484375 7.65625 C-12.97723964 3.96919466 -10.56813147 2.71320271 -7.4375 0.6875 C-4.43848764 -0.31217079 -3.06019291 -0.34575535 0 0 Z " fill="#E3E3E3" transform="translate(145.4375,35.3125)"/>
<path d="M0 0 C2.97 0 5.94 0 9 0 C9.07445407 4.73222455 9.1287447 9.46410411 9.16479492 14.19677734 C9.17983176 15.80491072 9.20026672 17.41300344 9.22631836 19.02099609 C9.26292822 21.33962064 9.27977722 23.65770049 9.29296875 25.9765625 C9.30845261 26.68930328 9.32393646 27.40204407 9.33988953 28.13638306 C9.34145407 32.83326956 8.50221489 36.02335283 6 40 C2.4153744 42.131399 -0.87649182 42.45816758 -5 42 C-7.1519437 38.77208445 -7.20086443 37.71599191 -7 34 C-5.02 33.34 -3.04 32.68 -1 32 C-0.67 21.44 -0.34 10.88 0 0 Z " fill="#EAEAEA" transform="translate(272,36)"/>
<path d="M0 0 C0 3.3 0 6.6 0 10 C-1.7015625 10.4640625 -1.7015625 10.4640625 -3.4375 10.9375 C-6.78775099 11.62924531 -6.78775099 11.62924531 -8 13 C-8.23701239 15.85877909 -8.42219182 18.69883297 -8.5625 21.5625 C-8.60568359 22.36880859 -8.64886719 23.17511719 -8.69335938 24.00585938 C-8.79975262 26.00368805 -8.90040888 28.0018207 -9 30 C-11.97 30 -14.94 30 -18 30 C-18 20.43 -18 10.86 -18 1 C-15.03 1 -12.06 1 -9 1 C-8.67 1.66 -8.34 2.32 -8 3 C-7.236875 2.505 -6.47375 2.01 -5.6875 1.5 C-3 0 -3 0 0 0 Z " fill="#E8E8E8" transform="translate(113,35)"/>
<path d="M0 0 C2.97 0 5.94 0 9 0 C10 1 10 1 10.11352539 3.68383789 C10.10828857 4.85164795 10.10305176 6.01945801 10.09765625 7.22265625 C10.09443359 8.48271484 10.09121094 9.74277344 10.08789062 11.04101562 C10.07953403 12.38151109 10.07106907 13.72200588 10.0625 15.0625 C10.0574866 16.40689942 10.05292342 17.7513006 10.04882812 19.09570312 C10.03699488 22.39717941 10.02050971 25.69856803 10 29 C6.7 29 3.4 29 0 29 C0 19.43 0 9.86 0 0 Z " fill="#D0D0D0" transform="translate(117,36)"/>
<path d="M0 0 C2.97 0 5.94 0 9 0 C9 9.57 9 19.14 9 29 C6.03 29 3.06 29 0 29 C0 19.43 0 9.86 0 0 Z " fill="#EAEAEA" transform="translate(288,36)"/>
<path d="M0 0 C2 2 2 2 2.25 4.5 C2 7 2 7 0 9 C-2.9375 9.4375 -2.9375 9.4375 -6 9 C-8 6.75 -8 6.75 -9 4 C-8.3125 1.75 -8.3125 1.75 -7 0 C-4.29393021 -1.35303489 -2.8671629 -0.7884698 0 0 Z " fill="#DADADA" transform="translate(125,24)"/>
<path d="M0 0 C0.66 0.66 1.32 1.32 2 2 C1.43181818 7.56818182 1.43181818 7.56818182 0 9 C-2.875 9.3125 -2.875 9.3125 -6 9 C-8 7.3125 -8 7.3125 -9 5 C-8.3125 2.3125 -8.3125 2.3125 -7 0 C-4.29393021 -1.35303489 -2.8671629 -0.7884698 0 0 Z " fill="#DBDBDB" transform="translate(280,24)"/>
<path d="M0 0 C2.4375 0.9375 2.4375 0.9375 3.875 3.25 C4.4375 5.9375 4.4375 5.9375 3.5625 8.25 C3.005625 9.0853125 3.005625 9.0853125 2.4375 9.9375 C-0.9375 10.125 -0.9375 10.125 -4.5625 9.9375 C-6.5625 6.9375 -6.5625 6.9375 -6.375 4.375 C-5.21221299 0.88663896 -3.65698087 -0.08919466 0 0 Z " fill="#DDDDDD" transform="translate(293.5625,23.0625)"/>
<path d="M0 0 C0.99 0 1.98 0 3 0 C2.67 0.99 2.34 1.98 2 3 C1.34 2.67 0.68 2.34 0 2 C0 1.34 0 0.68 0 0 Z " fill="#000000" transform="translate(25,28)"/>
</svg>
